<?xml version="1.0" encoding="iso-8859-1"?>
<!-- Generator: Adobe Illustrator 16.0.0, SVG Export Plug-In . SVG Version: 6.00 Build 0)  -->
<!DOCTYPE svg PUBLIC "-//W3C//DTD SVG 1.1//EN" "http://www.w3.org/Graphics/SVG/1.1/DTD/svg11.dtd">
<svg version="1.1" id="Capa_1" xmlns="http://www.w3.org/2000/svg" xmlns:xlink="http://www.w3.org/1999/xlink" x="0px" y="0px"
	 width="45px" height="45px" viewBox="0 0 45 45" style="enable-background:new 0 0 45 45;" xml:space="preserve">
<g>
	<path d="M39.268,0.732C38.799,0.264,38.163,0,37.5,0h-30C6.119,0,5,1.119,5,2.5v5v3.75h2.583c0.69,0,1.25,0.559,1.25,1.25
		c0,0.689-0.56,1.25-1.25,1.25H5v2.5h2.583c0.69,0,1.25,0.559,1.25,1.25c0,0.689-0.56,1.25-1.25,1.25H5v2.5h2.583
		c0.69,0,1.25,0.559,1.25,1.25c0,0.689-0.56,1.25-1.25,1.25H5v2.5h2.583c0.69,0,1.25,0.559,1.25,1.25c0,0.689-0.56,1.25-1.25,1.25H5
		v2.5h2.583c0.69,0,1.25,0.559,1.25,1.25c0,0.689-0.56,1.25-1.25,1.25H5v3.75c0,1.172,0.813,2.188,1.957,2.441l22.5,4.998
		C29.639,44.98,29.818,45,30,45c0.562,0,1.116-0.189,1.564-0.55c0.59-0.476,0.936-1.192,0.936-1.95V40c1.381,0,2.5-1.119,2.5-2.5V35
		h2.5c1.381,0,2.5-1.119,2.5-2.5v-30C40,1.837,39.736,1.201,39.268,0.732z M30.027,14.829l-6.486,6.486
		c-0.273,0.273-0.643,0.426-1.029,0.426c-0.386,0-0.756-0.154-1.029-0.426L18.968,18.8c-0.567-0.569-0.567-1.49,0.001-2.059
		c0.567-0.568,1.489-0.569,2.059,0l1.484,1.486l5.457-5.457c0.568-0.568,1.49-0.568,2.059,0
		C30.598,13.338,30.596,14.261,30.027,14.829z M37.5,32.5H35V30c0-1.381-1.119-2.5-2.5-2.5v-15c0-1.172-0.814-2.187-1.958-2.44
		l-22.5-4.999C7.861,5.02,7.682,5,7.5,5V2.5h30V32.5z"/>
</g>
<g>
</g>
<g>
</g>
<g>
</g>
<g>
</g>
<g>
</g>
<g>
</g>
<g>
</g>
<g>
</g>
<g>
</g>
<g>
</g>
<g>
</g>
<g>
</g>
<g>
</g>
<g>
</g>
<g>
</g>
</svg>
